<svg width="33" height="33" viewBox="0 0 33 33" fill="none" xmlns="http://www.w3.org/2000/svg">
<path d="M16.4995 0.518504C14.4253 0.442836 12.819 1.87602 11.0796 2.77655C8.7138 4.17893 6.27767 5.47263 3.95903 6.9477C2.44245 8.18037 1.74565 10.1639 1.90491 12.0794C1.91374 15.4756 1.88732 18.8725 1.91825 22.2681C2.11464 24.3242 3.54034 26.0691 5.37494 26.9293C8.32006 28.6196 11.2479 30.3413 14.2038 32.0118C16.0829 32.8687 18.3073 32.5083 19.9696 31.3491C22.9061 29.6434 25.8607 27.9679 28.7857 26.2432C30.4682 25.0452 31.2669 22.9382 31.0942 20.9193C31.0854 17.5231 31.1119 14.1262 31.0809 10.7306C30.8843 8.67466 29.4589 6.92933 27.6241 6.06959C24.6789 4.37963 21.7505 2.65906 18.7948 0.988303C18.0794 0.655983 17.2847 0.520695 16.4996 0.51844L16.4995 0.518504ZM14.6501 9.07079H18.3497V23.9285H14.6501V9.07079ZM19.3056 12.3047H23.0034V23.9285H19.3056V12.3047ZM9.9952 18.3684H13.6942V23.9285H9.9952V18.3683V18.3684Z" fill="#E2E7FF"/>
</svg>
