<svg width="18" height="25" viewBox="0 0 18 25" fill="none" xmlns="http://www.w3.org/2000/svg">
<path d="M8.81801 15.6319C10.0932 15.6305 11.3158 15.1233 12.2175 14.2216C13.1192 13.3199 13.6264 12.0973 13.6278 10.8221V4.80983C13.6278 3.53418 13.1211 2.31078 12.2191 1.40877C11.317 0.506748 10.0937 0 8.81801 0C7.54236 0 6.31896 0.506748 5.41694 1.40877C4.51493 2.31078 4.00818 3.53418 4.00818 4.80983V10.8221C4.00961 12.0973 4.51682 13.3199 5.41853 14.2216C6.32023 15.1233 7.5428 15.6305 8.81801 15.6319ZM5.61145 4.80983C5.61145 3.9594 5.94929 3.1438 6.55063 2.54245C7.15198 1.94111 7.96757 1.60328 8.81801 1.60328C9.66844 1.60328 10.484 1.94111 11.0854 2.54245C11.6867 3.1438 12.0246 3.9594 12.0246 4.80983V10.8221C12.0246 11.6725 11.6867 12.4881 11.0854 13.0895C10.484 13.6908 9.66844 14.0287 8.81801 14.0287C7.96757 14.0287 7.15198 13.6908 6.55063 13.0895C5.94929 12.4881 5.61145 11.6725 5.61145 10.8221V4.80983Z" fill="#161617"/>
<path d="M16.0328 8.0166V10.8223C16.0328 14.8005 12.7961 18.0371 8.81802 18.0371C4.83989 18.0371 1.60328 14.8005 1.60328 10.8223V8.0166H0V10.8223C0 15.4144 3.52841 19.1971 8.01638 19.6035V24.0494H9.61965V19.6035C14.1076 19.1971 17.636 15.4144 17.636 10.8223V8.0166H16.0328Z" fill="#161617"/>
</svg>
