<svg width="32" height="32" viewBox="0 0 32 32" fill="none" xmlns="http://www.w3.org/2000/svg">
<g clip-path="url(#clip0_8_94)">
<path fill-rule="evenodd" clip-rule="evenodd" d="M18.6667 2.6665C19.3739 2.6665 20.0522 2.94746 20.5523 3.44755C21.0524 3.94765 21.3333 4.62593 21.3333 5.33317C21.334 6.25465 21.6524 7.14772 22.2349 7.86179C22.8173 8.57587 23.6281 9.06728 24.5307 9.25317C25.2238 9.39391 25.8326 9.80422 26.2232 10.3938C26.6137 10.9835 26.7541 11.7041 26.6133 12.3972C26.4726 13.0903 26.0623 13.6991 25.4727 14.0896C24.8831 14.4802 24.1624 14.6206 23.4693 14.4798C22.731 14.3296 22.0138 14.0901 21.3333 13.7665V21.3332C21.3333 22.8295 20.9136 24.2958 20.1219 25.5655C19.3302 26.8352 18.1983 27.8575 16.8547 28.5161C15.5112 29.1748 14.0098 29.4434 12.5213 29.2915C11.0327 29.1396 9.61652 28.5733 8.43368 27.6568C7.25084 26.7404 6.34873 25.5106 5.82981 24.1072C5.3109 22.7037 5.196 21.1829 5.49815 19.7174C5.8003 18.2519 6.5074 16.9005 7.53912 15.8168C8.57083 14.733 9.88582 13.9603 11.3347 13.5865C12.0152 13.4224 12.733 13.5325 13.3331 13.893C13.9332 14.2535 14.3675 14.8355 14.5422 15.5134C14.7169 16.1914 14.618 16.9108 14.2668 17.5164C13.9157 18.122 13.3405 18.5653 12.6653 18.7505C12.0402 18.9164 11.4966 19.3035 11.1355 19.8401C10.7744 20.3766 10.6203 21.026 10.702 21.6675C10.7836 22.3091 11.0954 22.8992 11.5794 23.3282C12.0634 23.7571 12.6866 23.9958 13.3333 23.9998C14.0406 23.9998 14.7189 23.7189 15.219 23.2188C15.7191 22.7187 16 22.0404 16 21.3332V5.33317C16 4.62593 16.281 3.94765 16.7811 3.44755C17.2812 2.94746 17.9594 2.6665 18.6667 2.6665Z" fill="#E2E7FF"/>
</g>
<defs>
<clipPath id="clip0_8_94">
<rect width="32" height="32" fill="white"/>
</clipPath>
</defs>
</svg>
