<svg width="23" height="23" viewBox="0 0 23 23" fill="none" xmlns="http://www.w3.org/2000/svg">
<path d="M22.6579 4.7311C21.8577 5.08568 20.998 5.32527 20.0943 5.43356C21.0268 4.87561 21.7244 3.99746 22.057 2.96298C21.1809 3.48334 20.2221 3.84962 19.2222 4.04589C18.5499 3.32797 17.6593 2.85212 16.6887 2.69222C15.7182 2.53232 14.722 2.69732 13.8548 3.16159C12.9877 3.62587 12.2981 4.36345 11.8931 5.25982C11.488 6.15619 11.3903 7.16119 11.615 8.11881C9.83986 8.02968 8.1033 7.56829 6.51802 6.76459C4.93274 5.96089 3.53417 4.83284 2.41307 3.45364C2.02974 4.11489 1.80932 4.88156 1.80932 5.69806C1.8089 6.4331 1.98991 7.15688 2.33629 7.80518C2.68268 8.45348 3.18373 9.00626 3.79499 9.41448C3.08609 9.39192 2.39283 9.20037 1.77291 8.85577V8.91327C1.77284 9.94419 2.12944 10.9434 2.78221 11.7413C3.43498 12.5392 4.3437 13.0867 5.3542 13.2909C4.69657 13.4689 4.00711 13.4951 3.33787 13.3676C3.62297 14.2546 4.17832 15.0303 4.92618 15.5861C5.67403 16.1418 6.57695 16.4498 7.50853 16.4669C5.92712 17.7083 3.97409 18.3817 1.96362 18.3787C1.60748 18.3788 1.25165 18.358 0.897949 18.3164C2.9387 19.6286 5.31427 20.3249 7.74045 20.3222C15.9534 20.3222 20.4432 13.52 20.4432 7.62048C20.4432 7.42881 20.4384 7.23523 20.4297 7.04356C21.3031 6.41199 22.0569 5.62992 22.6559 4.73398L22.6579 4.7311Z" fill="#1624A1"/>
</svg>
